<svg xmlns="http://www.w3.org/2000/svg" viewBox="0 0 64 64">
  <title>ICON_MAP_AIRCRAFT_SYSTEM</title>
  <g id="V5_OTHERS">
    <path d="M29.64,21.85l-1.48-2.43a.6.6,0,0,0-.69-.25c-.31.11-.63.23-.93.37s-.62.28-.85.4-.59.33-.87.5a.62.62,0,0,0-.24.7l1,2.68a.73.73,0,0,1-.19.74,9.7,9.7,0,0,0-1.48,1.65.74.74,0,0,1-.72.28l-2.77-.67a.62.62,0,0,0-.67.31,12.52,12.52,0,0,0-.56,1.36,14.34,14.34,0,0,0-.41,1.42.6.6,0,0,0,.32.65l2.59,1.21a.73.73,0,0,1,.38.67,10.18,10.18,0,0,0,.12,2.21.71.71,0,0,1-.31.7l-2.43,1.49a.6.6,0,0,0-.25.69c.11.31.23.62.37.93s.28.62.4.85.32.59.5.87a.61.61,0,0,0,.7.23l2.68-1a.75.75,0,0,1,.74.2,9.7,9.7,0,0,0,1.65,1.48.74.74,0,0,1,.28.72l-.67,2.77a.6.6,0,0,0,.31.66c.44.21.89.4,1.36.57a14.34,14.34,0,0,0,1.42.41.6.6,0,0,0,.65-.33l1.21-2.58a.73.73,0,0,1,.67-.38,9.63,9.63,0,0,0,2.21-.13.77.77,0,0,1,.71.32l1.48,2.43a.6.6,0,0,0,.69.25c.31-.11.62-.23.93-.37s.62-.28.85-.4.59-.33.87-.5a.63.63,0,0,0,.24-.7l-1-2.68a.75.75,0,0,1,.2-.74,9.7,9.7,0,0,0,1.48-1.65.74.74,0,0,1,.72-.28l2.77.67a.6.6,0,0,0,.66-.31c.21-.44.4-.89.57-1.36a14.34,14.34,0,0,0,.41-1.42.6.6,0,0,0-.33-.65l-2.58-1.21a.73.73,0,0,1-.38-.67,9.59,9.59,0,0,0-.13-2.21.72.72,0,0,1,.32-.7l2.43-1.49a.6.6,0,0,0,.25-.69c-.11-.31-.23-.62-.37-.93s-.28-.62-.4-.85-.33-.59-.5-.87a.62.62,0,0,0-.7-.23l-2.68,1a.75.75,0,0,1-.74-.2,9.7,9.7,0,0,0-1.65-1.48.73.73,0,0,1-.28-.72l.67-2.77a.61.61,0,0,0-.31-.66c-.44-.21-.89-.4-1.36-.57a14.34,14.34,0,0,0-1.42-.41.59.59,0,0,0-.65.33l-1.21,2.58a.76.76,0,0,1-.67.39,9,9,0,0,0-2.21.12A.74.74,0,0,1,29.64,21.85Zm4,5.34a5.1,5.1,0,1,1-6.5,3.12A5.09,5.09,0,0,1,33.69,27.19Z" />
  </g>
</svg>
